<svg xmlns="http://www.w3.org/2000/svg" viewBox="0 0 132 130">
  <defs>
    <style>
      .st2 { fill: #070529; }
      .st3 { fill: #8f8aeb; }
    </style>
  </defs>
  <path class="st2" d="M63.2,89.7l-23.8-24c-.2-.2-.2-.6,0-.8l45-44.6c.8-.8.8-2,0-2.8L67.4.6c-.8-.8-2-.8-2.8,0L.4,64.2c-.5.5-.5,1.4,0,1.9l24.5,24.7c.4.4.9.6,1.4.6h36.1c.9,0,1.3-1.1.7-1.7h0Z"/>
  <path class="st3" d="M68.4,40.3l23.8,24c.2.2.2.6,0,.8l-45,44.6c-.8.8-.8,2.1,0,2.8l16.9,16.9c.8.8,2,.8,2.8,0l64.2-63.6c.5-.5.5-1.4,0-1.9l-24.6-24.7c-.4-.4-.9-.6-1.4-.6h-36.1c-.9,0-1.3,1.1-.7,1.7h0Z"/>
</svg>