<svg xmlns="http://www.w3.org/2000/svg" id="Layer_2" viewBox="0 0 760 130.1"><defs><style>      .st0 {        fill: #070527;      }      .st1 {        fill: #918cec;      }      .st2 {        fill: #070529;      }      .st3 {        fill: #8f8aeb;      }    </style></defs><g id="Layer_1-2"><g><path class="st0" d="M255.9,23h-58.5c-.7,0-1.2.5-1.2,1.1v14.4c0,.7.5,1.1,1.2,1.1h20.9v65.5c0,.4.4.9.9.9h14.8c.4,0,.9-.4.9-.9V39.6h21c.7,0,1.2-.5,1.2-1.1v-14.4c0-.6-.5-1.1-1.2-1.1h0Z"></path><rect class="st1" x="166.3" y="23.3" width="16.6" height="16.7" rx=".8" ry=".8"></rect><path class="st0" d="M356.6,46.4c3.7,2,6.7,4.9,8.9,9,2.1,3.9,3.2,8.8,3.2,14.5v35.3c0,.4-.5.9-.9.9h-8.3c-.6,0-.9-.4-.9-.9v-34c0-6.2-1.6-10.9-4.5-14.1-3-3.2-7.2-4.8-12.3-4.8s-9.5,1.7-12.7,5c-3.1,3.4-4.7,8.3-4.7,14.8v33c0,.4-.5.9-.9.9h-8.3c-.6,0-.9-.4-.9-.9v-33.9c0-6.2-1.6-10.9-4.5-14.1-2.9-3.2-7.2-4.8-12.3-4.8s-9.5,1.7-12.7,5c-3.1,3.4-4.7,8.3-4.7,14.8v33c0,.4-.5.9-.9.9h-8.4c-.6,0-.9-.4-.9-.9v-59.7c0-.6.5-.9.9-.9h8.4c.6,0,.9.5.9.9v8c2-3.2,4.7-5.7,8.2-7.4,3.4-1.7,7.2-2.6,11.3-2.6s9.8,1.1,13.7,3.5,7,5.7,8.9,10.2c1.7-4.4,4.6-7.7,8.5-10.1s8.4-3.6,13.2-3.6,9,1,12.7,3h0Z"></path><path class="st0" d="M440.5,79h-48.4c.3,6.1,2.5,10.8,6.3,14.2,3.8,3.4,8.4,5.2,13.8,5.2s8.1-1,11.1-3.1c2.8-1.9,4.8-4.5,6.1-7.6.1-.3.5-.6.9-.6h9.2c.6,0,1,.6.9,1.2-1.7,5.4-4.9,9.8-9.5,13.2-4.9,3.7-11.1,5.6-18.4,5.6s-11.1-1.3-15.7-3.9c-4.6-2.6-8.2-6.4-10.9-11.2-2.6-4.8-3.9-10.4-3.9-16.8s1.2-11.9,3.8-16.7,6.2-8.5,10.8-11.1c4.6-2.6,9.9-3.9,15.9-3.9s11,1.2,15.5,3.8c4.5,2.6,8,6.1,10.4,10.5,2.5,4.5,3.6,9.5,3.6,15.1s-.1,3.5-.2,5.4c-.5.3-.8.7-1.2.7h0ZM428.5,60.7c-1.7-2.8-4-4.9-7.1-6.4-2.9-1.5-6.3-2.2-9.9-2.2-5.2,0-9.5,1.7-13.2,4.9-3.6,3.2-5.7,7.8-6.3,13.7h38.8c.2-3.9-.6-7.2-2.4-10h0Z"></path><path class="st0" d="M467.6,52.9v36.2c0,3,.7,5.2,1.9,6.4,1.2,1.2,3.5,1.9,6.6,1.9h6.6c.6,0,.9.4.9.9v6.8c0,.4-.5.9-.9.9h-8.3c-5.7,0-10-1.3-12.8-3.9-2.8-2.6-4.3-6.9-4.3-12.9v-36.3h-7.1c-.6,0-.9-.5-.9-.9v-6.6c0-.6.5-.9.9-.9h7.1v-14.6c0-.5.5-.9.9-.9h8.4c.6,0,.9.5.9.9v14.6h15.1c.6,0,.9.5.9.9v6.6c0,.6-.5.9-.9.9h-15.1Z"></path><path class="st0" d="M539.1,46.4c3.7,2,6.7,4.9,8.9,9,2.1,3.9,3.1,8.8,3.1,14.5v35.3c0,.4-.5.9-.9.9h-8.3c-.6,0-.9-.4-.9-.9v-34c0-6.2-1.6-10.9-4.6-14.1-3-3.2-7.3-4.8-12.6-4.8s-9.7,1.7-12.9,5c-3.1,3.4-4.7,8.3-4.7,14.7v33.1c0,.4-.5.9-.9.9h-8.4c-.6,0-.9-.4-.9-.9V23.8c0-.5.5-.9.9-.9h8.4c.6,0,.9.5.9.9v29.4c2-3.1,4.8-5.6,8.4-7.3,3.6-1.7,7.5-2.6,12-2.6s8.8,1,12.5,3h0Z"></path><path class="st0" d="M579.1,103.1c-4.7-2.6-8.3-6.4-11-11.2-2.7-4.8-3.9-10.4-3.9-16.8s1.3-11.9,4.2-16.7c2.7-4.8,6.5-8.5,11.2-11.1,4.7-2.6,10-3.9,15.8-3.9s11.1,1.2,15.8,3.9c4.7,2.7,8.4,6.3,11.2,11.1s4.2,10.3,4.2,16.7-1.3,12-4.3,16.8c-2.8,4.8-6.6,8.5-11.4,11.2-4.8,2.6-10.1,3.9-15.9,3.9s-11.1-1.3-15.8-3.9h0ZM605.1,95.4c3.2-1.7,5.8-4.3,7.8-7.7,2-3.5,3-7.6,3-12.6s-1-9.1-2.9-12.6c-1.9-3.5-4.5-6.1-7.6-7.7s-6.5-2.5-10.2-2.5-7.2.9-10.3,2.5c-3.1,1.7-5.6,4.3-7.5,7.7-1.9,3.5-2.8,7.6-2.8,12.6s.9,9.2,2.8,12.7,4.3,6.1,7.4,7.7,6.4,2.5,10.1,2.5,7-.8,10.2-2.6h0Z"></path><path class="st0" d="M639.8,58.5c2.6-4.7,6.1-8.4,10.5-11.1,4.5-2.7,9.4-3.9,15-3.9s9.2,1.1,13.3,3.4,7.3,5,9.4,8.8v-31.7c0-.5.5-.9.9-.9h8.5c.6,0,.9.5.9.9v81.3c0,.4-.5.9-.9.9h-8.5c-.6,0-.9-.4-.9-.9v-10.7c-2,3.7-5,6.7-9,9.1-3.9,2.4-8.6,3.6-13.9,3.6s-10.4-1.3-14.9-4-8-6.5-10.5-11.3c-2.6-4.8-3.8-10.4-3.8-16.6s1.2-12,3.8-16.7h0ZM685.2,63c-1.9-3.5-4.4-6.1-7.6-8-3.1-1.8-6.7-2.8-10.5-2.8s-7.3.9-10.4,2.7c-3.1,1.8-5.6,4.4-7.5,7.8-1.9,3.5-2.8,7.5-2.8,12.1s.9,8.9,2.8,12.3c1.9,3.5,4.4,6.2,7.5,8,3.1,1.8,6.6,2.7,10.4,2.7s7.3-.9,10.5-2.7c3.1-1.8,5.7-4.5,7.6-8,1.9-3.5,2.8-7.5,2.8-12.2s-.9-8.5-2.8-12Z"></path><path class="st0" d="M724.8,104.6c-3.7-1.6-6.7-3.8-8.9-6.7-2-2.6-3.1-5.6-3.5-9,0-.6.3-1,.9-1h8.8c.5,0,.8.3.9.8.5,2.7,1.9,4.9,4.3,6.7,2.6,1.9,6,2.9,10.2,2.9s7-.9,9.2-2.6c2.2-1.7,3.4-3.9,3.4-6.5s-1.2-4.7-3.6-6.1c-2.4-1.3-6.1-2.6-11.1-3.9-4.6-1.2-8.3-2.5-11.2-3.6-2.9-1.1-5.4-3-7.4-5.5s-3.1-5.6-3.1-9.7.9-6.1,2.8-8.6c1.9-2.6,4.5-4.7,8-6.3s7.4-2.2,11.8-2.2c6.8,0,12.3,1.7,16.5,5.2,3.9,3.2,6.2,7.6,6.6,13.1,0,.6-.3,1-.9,1h-8.4c-.5,0-.9-.3-.9-.8-.3-2.8-1.7-5.2-3.8-7-2.4-1.9-5.5-2.9-9.5-2.9s-6.6.8-8.8,2.4-3.2,3.6-3.2,6.2.7,3.7,2,5.1c1.3,1.3,2.9,2.4,4.9,3.1,2,.8,4.7,1.7,8.3,2.6,4.4,1.2,8,2.4,10.8,3.6,2.8,1.1,5.2,2.9,7.2,5.3,2,2.4,3,5.4,3.1,9.1,0,3.4-.9,6.4-2.8,9.1-1.9,2.7-4.5,4.8-8,6.4-3.4,1.6-7.3,2.4-11.8,2.4-4.7-.1-9-.9-12.7-2.5h0Z"></path><path class="st0" d="M166.2,48.6v56.3c0,.7.4,1.1,1.1,1.1h14.4c.7,0,1.1-.4,1.1-1.1v-56.3c0-.7-.4-1.1-1.1-1.1h-14.4c-.6,0-1.1.5-1.1,1.1Z"></path><path class="st2" d="M63.2,89.7l-23.8-24c-.2-.2-.2-.6,0-.8l45-44.6c.8-.8.8-2,0-2.8L67.4.6c-.8-.8-2-.8-2.8,0L.4,64.2c-.5.5-.5,1.4,0,1.9l24.5,24.7c.4.4.9.6,1.4.6h36.1c.9,0,1.3-1.1.7-1.7h0Z"></path><path class="st3" d="M68.4,40.3l23.8,24c.2.2.2.6,0,.8l-45,44.6c-.8.8-.8,2.1,0,2.8l16.9,16.9c.8.8,2,.8,2.8,0l64.2-63.6c.5-.5.5-1.4,0-1.9l-24.6-24.7c-.4-.4-.9-.6-1.4-.6h-36.1c-.9,0-1.3,1.1-.7,1.7h0Z"></path></g></g></svg>